<svg width="51" height="50" viewBox="0 0 51 50" fill="none" xmlns="http://www.w3.org/2000/svg">
<rect x="0.398926" width="50" height="50" rx="5" fill="#3F3F42"/>
<path d="M33.6444 26.6667H26.341V34.5833C26.341 35.4542 25.6837 36.1667 24.8803 36.1667C24.0769 36.1667 23.4196 35.4542 23.4196 34.5833V26.6667H16.1162C15.3128 26.6667 14.6555 25.9542 14.6555 25.0833C14.6555 24.2125 15.3128 23.5 16.1162 23.5H23.4196V15.5833C23.4196 14.7125 24.0769 14 24.8803 14C25.6837 14 26.341 14.7125 26.341 15.5833V23.5H33.6444C34.4477 23.5 35.105 24.2125 35.105 25.0833C35.105 25.9542 34.4477 26.6667 33.6444 26.6667Z" fill="#D6D6D6"/>
</svg>
