<svg width="32" height="29" viewBox="0 0 32 29" fill="none" xmlns="http://www.w3.org/2000/svg">
<path d="M27.6906 2.3175C23.6444 -0.532502 18.648 0.797498 15.9506 4.05916C13.2532 0.797498 8.25676 -0.548335 4.2106 2.3175C2.06491 3.8375 0.716192 6.4025 0.624234 9.11C0.409665 15.2533 5.68193 20.1775 13.7283 27.73L13.8815 27.8725C15.0463 28.965 16.8395 28.965 18.0043 27.8567L18.1729 27.6983C26.2192 20.1617 31.4762 15.2375 31.2769 9.09417C31.185 6.4025 29.8363 3.8375 27.6906 2.3175ZM16.1039 25.3708L15.9506 25.5292L15.7973 25.3708C8.50198 18.5467 3.6895 14.0342 3.6895 9.45833C3.6895 6.29167 5.98846 3.91666 9.05373 3.91666C11.414 3.91666 13.7129 5.48417 14.5252 7.65333H17.3913C18.1882 5.48417 20.4872 3.91666 22.8475 3.91666C25.9127 3.91666 28.2117 6.29167 28.2117 9.45833C28.2117 14.0342 23.3992 18.5467 16.1039 25.3708Z" fill="#EFEFF4"/>
</svg>
