<svg width="27" height="24" viewBox="0 0 27 24" fill="none" xmlns="http://www.w3.org/2000/svg">
<path d="M1.68962 15.1667H4.75489C5.59784 15.1667 6.28752 14.4542 6.28752 13.5833V10.4167C6.28752 9.54584 5.59784 8.83334 4.75489 8.83334H1.68962C0.846668 8.83334 0.156982 9.54584 0.156982 10.4167V13.5833C0.156982 14.4542 0.846668 15.1667 1.68962 15.1667ZM1.68962 23.0833H4.75489C5.59784 23.0833 6.28752 22.3708 6.28752 21.5V18.3333C6.28752 17.4625 5.59784 16.75 4.75489 16.75H1.68962C0.846668 16.75 0.156982 17.4625 0.156982 18.3333V21.5C0.156982 22.3708 0.846668 23.0833 1.68962 23.0833ZM1.68962 7.25001H4.75489C5.59784 7.25001 6.28752 6.53751 6.28752 5.66667V2.50001C6.28752 1.62917 5.59784 0.916672 4.75489 0.916672H1.68962C0.846668 0.916672 0.156982 1.62917 0.156982 2.50001V5.66667C0.156982 6.53751 0.846668 7.25001 1.68962 7.25001ZM9.35279 15.1667H24.6791C25.5221 15.1667 26.2118 14.4542 26.2118 13.5833V10.4167C26.2118 9.54584 25.5221 8.83334 24.6791 8.83334H9.35279C8.50985 8.83334 7.82016 9.54584 7.82016 10.4167V13.5833C7.82016 14.4542 8.50985 15.1667 9.35279 15.1667ZM9.35279 23.0833H24.6791C25.5221 23.0833 26.2118 22.3708 26.2118 21.5V18.3333C26.2118 17.4625 25.5221 16.75 24.6791 16.75H9.35279C8.50985 16.75 7.82016 17.4625 7.82016 18.3333V21.5C7.82016 22.3708 8.50985 23.0833 9.35279 23.0833ZM7.82016 2.50001V5.66667C7.82016 6.53751 8.50985 7.25001 9.35279 7.25001H24.6791C25.5221 7.25001 26.2118 6.53751 26.2118 5.66667V2.50001C26.2118 1.62917 25.5221 0.916672 24.6791 0.916672H9.35279C8.50985 0.916672 7.82016 1.62917 7.82016 2.50001Z" fill="#EFEFF4"/>
</svg>
