<svg width="70" height="70" viewBox="0 0 70 70" fill="none" xmlns="http://www.w3.org/2000/svg">
<rect width="70" height="70" fill="#2C2C2E"/>
<path fill-rule="evenodd" clip-rule="evenodd" d="M27.777 51.6667H42.2214C47.8719 51.6667 51.6667 47.7032 51.6667 41.8055V28.1946C51.6667 22.2969 47.8719 18.3334 42.2231 18.3334H27.777C22.1282 18.3334 18.3334 22.2969 18.3334 28.1946V41.8055C18.3334 47.7032 22.1282 51.6667 27.777 51.6667ZM29.1648 33.3334C26.8671 33.3334 25 31.4638 25 29.1667C25 26.8696 26.8671 25 29.1648 25C31.4609 25 33.3296 26.8696 33.3296 29.1667C33.3296 31.4638 31.4609 33.3334 29.1648 33.3334ZM48.0347 39.89C48.5928 41.321 48.3029 43.041 47.7062 44.4583C46.999 46.1438 45.6448 47.4201 43.9387 47.9774C43.1811 48.225 42.3867 48.3334 41.594 48.3334H27.5478C26.15 48.3334 24.9132 47.998 23.8992 47.3736C23.264 46.9815 23.1517 46.0768 23.6227 45.4903C24.4104 44.5099 25.188 43.526 25.9724 42.5336C27.4673 40.6347 28.4746 40.0843 29.5941 40.5677C30.0483 40.7672 30.5042 41.0665 30.9734 41.3829C32.2237 42.2326 33.9617 43.4005 36.251 42.1328C37.8177 41.2554 38.7264 39.7503 39.5177 38.4396L39.5309 38.4177C39.587 38.3257 39.6425 38.2338 39.698 38.1421C39.9639 37.7021 40.2263 37.2679 40.5231 36.868C40.8951 36.3674 42.2745 34.8023 44.061 35.9168C45.199 36.6186 46.156 37.568 47.18 38.5845C47.5705 38.9732 47.8487 39.4153 48.0347 39.89Z" fill="#5856D6"/>
</svg>