<svg width="17" height="29" viewBox="0 0 17 29" fill="none" xmlns="http://www.w3.org/2000/svg">
<path d="M2.0332 1.10352C1.875 0.980469 1.73438 0.875 1.52344 0.875C1.13672 0.875 0.837891 1.17383 0.837891 1.56055C0.837891 1.73633 0.890625 1.92969 1.01367 2.05273L14.8125 14.709L1.01367 27.3301C0.890625 27.4707 0.837891 27.6641 0.837891 27.8398C0.837891 28.2266 1.13672 28.543 1.52344 28.543C1.73438 28.543 1.85742 28.4551 2.01562 28.3145L16.1836 15.3594C16.377 15.166 16.5176 14.9551 16.5176 14.6914C16.5176 14.4453 16.3945 14.252 16.2012 14.0586L2.0332 1.10352Z" fill="#EFEFF4"/>
</svg>
