<svg width="33" height="32" viewBox="0 0 33 32" fill="none" xmlns="http://www.w3.org/2000/svg">
<path d="M30.8437 10.95L21.7687 10.1625L18.225 1.81875C17.5875 0.3 15.4125 0.3 14.775 1.81875L11.2312 10.1813L2.17495 10.95C0.524953 11.0812 -0.150047 13.1437 1.1062 14.2312L7.98745 20.1938L5.92495 29.0438C5.54995 30.6563 7.2937 31.9313 8.7187 31.0688L16.5 26.3813L24.2812 31.0875C25.7062 31.95 27.4499 30.675 27.0749 29.0625L25.0125 20.1938L31.8937 14.2312C33.1499 13.1437 32.4937 11.0812 30.8437 10.95V10.95ZM16.5 22.875L9.44995 27.1313L11.325 19.1063L5.09995 13.7063L13.3125 12.9938L16.5 5.4375L19.7062 13.0125L27.9187 13.725L21.6937 19.125L23.5687 27.15L16.5 22.875Z" fill="#D6D6D6"/>
</svg>
